<svg xmlns="http://www.w3.org/2000/svg" width="536" height="262" viewBox="0 0 536 262" role="img"><defs><filter id="gg" x="-60%" y="-60%" width="220%" height="220%"><feGaussianBlur stdDeviation="2.2" result="b"/><feMerge><feMergeNode in="b"/><feMergeNode in="SourceGraphic"/></feMerge></filter><filter id="gc" x="-60%" y="-60%" width="220%" height="220%"><feGaussianBlur stdDeviation="2.2" result="b"/><feMerge><feMergeNode in="b"/><feMergeNode in="SourceGraphic"/></feMerge></filter><filter id="gp" x="-60%" y="-60%" width="220%" height="220%"><feGaussianBlur stdDeviation="2.2" result="b"/><feMerge><feMergeNode in="b"/><feMergeNode in="SourceGraphic"/></feMerge></filter><filter id="gv" x="-60%" y="-60%" width="220%" height="220%"><feGaussianBlur stdDeviation="2.2" result="b"/><feMerge><feMergeNode in="b"/><feMergeNode in="SourceGraphic"/></feMerge></filter><filter id="gm" x="-60%" y="-60%" width="220%" height="220%"><feGaussianBlur stdDeviation="2.2" result="b"/><feMerge><feMergeNode in="b"/><feMergeNode in="SourceGraphic"/></feMerge></filter><linearGradient id="wg" x1="0" y1="0" x2="1" y2="0"><stop offset="0" stop-color="#00FF66"/><stop offset="0.55" stop-color="#00E5FF"/><stop offset="1" stop-color="#FF0055"/></linearGradient><linearGradient id="wfill" x1="0" y1="0" x2="0" y2="1"><stop offset="0" stop-color="#00FF66" stop-opacity="0.30"/><stop offset="1" stop-color="#FF0055" stop-opacity="0.02"/></linearGradient></defs><title>SECHABA STATION hero wordmark</title><rect width="536" height="262" fill="#020607"/><rect x="0" y="0" width="536" height="262" rx="9" fill="#071012" stroke="#00FF66" stroke-width="1" stroke-opacity="0.5"/><rect x="0" y="0" width="536" height="262" rx="9" fill="none" stroke="#00FF66" stroke-width="1" stroke-opacity="0.14" filter="url(#gg)"/><rect x="92.5" y="39.0" width="9" height="9" rx="0" fill="#00FF66" opacity="0.95" filter="url(#gg)"/><rect x="101.5" y="39.0" width="9" height="9" rx="0" fill="#00FF66" opacity="0.95" filter="url(#gg)"/><rect x="110.5" y="39.0" width="9" height="9" rx="0" fill="#00FF66" opacity="0.95" filter="url(#gg)"/><rect x="119.5" y="39.0" width="9" height="9" rx="0" fill="#00FF66" opacity="0.95" filter="url(#gg)"/><rect x="83.5" y="48.0" width="9" height="9" rx="0" fill="#00FF66" opacity="0.95" filter="url(#gg)"/><rect x="83.5" y="57.0" width="9" height="9" rx="0" fill="#00FF66" opacity="0.95" filter="url(#gg)"/><rect x="92.5" y="66.0" width="9" height="9" rx="0" fill="#00FF66" opacity="0.95" filter="url(#gg)"/><rect x="101.5" y="66.0" width="9" height="9" rx="0" fill="#00FF66" opacity="0.95" filter="url(#gg)"/><rect x="110.5" y="66.0" width="9" height="9" rx="0" fill="#00FF66" opacity="0.95" filter="url(#gg)"/><rect x="119.5" y="75.0" width="9" height="9" rx="0" fill="#00FF66" opacity="0.95" filter="url(#gg)"/><rect x="119.5" y="84.0" width="9" height="9" rx="0" fill="#00FF66" opacity="0.95" filter="url(#gg)"/><rect x="83.5" y="93.0" width="9" height="9" rx="0" fill="#00FF66" opacity="0.95" filter="url(#gg)"/><rect x="92.5" y="93.0" width="9" height="9" rx="0" fill="#00FF66" opacity="0.95" filter="url(#gg)"/><rect x="101.5" y="93.0" width="9" height="9" rx="0" fill="#00FF66" opacity="0.95" filter="url(#gg)"/><rect x="110.5" y="93.0" width="9" height="9" rx="0" fill="#00FF66" opacity="0.95" filter="url(#gg)"/><rect x="137.5" y="39.0" width="9" height="9" rx="0" fill="#00FF66" opacity="0.95" filter="url(#gg)"/><rect x="146.5" y="39.0" width="9" height="9" rx="0" fill="#00FF66" opacity="0.95" filter="url(#gg)"/><rect x="155.5" y="39.0" width="9" height="9" rx="0" fill="#00FF66" opacity="0.95" filter="url(#gg)"/><rect x="164.5" y="39.0" width="9" height="9" rx="0" fill="#00FF66" opacity="0.95" filter="url(#gg)"/><rect x="173.5" y="39.0" width="9" height="9" rx="0" fill="#00FF66" opacity="0.95" filter="url(#gg)"/><rect x="137.5" y="48.0" width="9" height="9" rx="0" fill="#00FF66" opacity="0.95" filter="url(#gg)"/><rect x="137.5" y="57.0" width="9" height="9" rx="0" fill="#00FF66" opacity="0.95" filter="url(#gg)"/><rect x="137.5" y="66.0" width="9" height="9" rx="0" fill="#00FF66" opacity="0.95" filter="url(#gg)"/><rect x="146.5" y="66.0" width="9" height="9" rx="0" fill="#00FF66" opacity="0.95" filter="url(#gg)"/><rect x="155.5" y="66.0" width="9" height="9" rx="0" fill="#00FF66" opacity="0.95" filter="url(#gg)"/><rect x="137.5" y="75.0" width="9" height="9" rx="0" fill="#00FF66" opacity="0.95" filter="url(#gg)"/><rect x="137.5" y="84.0" width="9" height="9" rx="0" fill="#00FF66" opacity="0.95" filter="url(#gg)"/><rect x="137.5" y="93.0" width="9" height="9" rx="0" fill="#00FF66" opacity="0.95" filter="url(#gg)"/><rect x="146.5" y="93.0" width="9" height="9" rx="0" fill="#00FF66" opacity="0.95" filter="url(#gg)"/><rect x="155.5" y="93.0" width="9" height="9" rx="0" fill="#00FF66" opacity="0.95" filter="url(#gg)"/><rect x="164.5" y="93.0" width="9" height="9" rx="0" fill="#00FF66" opacity="0.95" filter="url(#gg)"/><rect x="173.5" y="93.0" width="9" height="9" rx="0" fill="#00FF66" opacity="0.95" filter="url(#gg)"/><rect x="200.5" y="39.0" width="9" height="9" rx="0" fill="#00FF66" opacity="0.95" filter="url(#gg)"/><rect x="209.5" y="39.0" width="9" height="9" rx="0" fill="#00FF66" opacity="0.95" filter="url(#gg)"/><rect x="218.5" y="39.0" width="9" height="9" rx="0" fill="#00FF66" opacity="0.95" filter="url(#gg)"/><rect x="191.5" y="48.0" width="9" height="9" rx="0" fill="#00FF66" opacity="0.95" filter="url(#gg)"/><rect x="227.5" y="48.0" width="9" height="9" rx="0" fill="#00FF66" opacity="0.95" filter="url(#gg)"/><rect x="191.5" y="57.0" width="9" height="9" rx="0" fill="#00FF66" opacity="0.95" filter="url(#gg)"/><rect x="191.5" y="66.0" width="9" height="9" rx="0" fill="#00FF66" opacity="0.95" filter="url(#gg)"/><rect x="191.5" y="75.0" width="9" height="9" rx="0" fill="#00FF66" opacity="0.95" filter="url(#gg)"/><rect x="191.5" y="84.0" width="9" height="9" rx="0" fill="#00FF66" opacity="0.95" filter="url(#gg)"/><rect x="227.5" y="84.0" width="9" height="9" rx="0" fill="#00FF66" opacity="0.95" filter="url(#gg)"/><rect x="200.5" y="93.0" width="9" height="9" rx="0" fill="#00FF66" opacity="0.95" filter="url(#gg)"/><rect x="209.5" y="93.0" width="9" height="9" rx="0" fill="#00FF66" opacity="0.95" filter="url(#gg)"/><rect x="218.5" y="93.0" width="9" height="9" rx="0" fill="#00FF66" opacity="0.95" filter="url(#gg)"/><rect x="245.5" y="39.0" width="9" height="9" rx="0" fill="#00FF66" opacity="0.95" filter="url(#gg)"/><rect x="281.5" y="39.0" width="9" height="9" rx="0" fill="#00FF66" opacity="0.95" filter="url(#gg)"/><rect x="245.5" y="48.0" width="9" height="9" rx="0" fill="#00FF66" opacity="0.95" filter="url(#gg)"/><rect x="281.5" y="48.0" width="9" height="9" rx="0" fill="#00FF66" opacity="0.95" filter="url(#gg)"/><rect x="245.5" y="57.0" width="9" height="9" rx="0" fill="#00FF66" opacity="0.95" filter="url(#gg)"/><rect x="281.5" y="57.0" width="9" height="9" rx="0" fill="#00FF66" opacity="0.95" filter="url(#gg)"/><rect x="245.5" y="66.0" width="9" height="9" rx="0" fill="#00FF66" opacity="0.95" filter="url(#gg)"/><rect x="254.5" y="66.0" width="9" height="9" rx="0" fill="#00FF66" opacity="0.95" filter="url(#gg)"/><rect x="263.5" y="66.0" width="9" height="9" rx="0" fill="#00FF66" opacity="0.95" filter="url(#gg)"/><rect x="272.5" y="66.0" width="9" height="9" rx="0" fill="#00FF66" opacity="0.95" filter="url(#gg)"/><rect x="281.5" y="66.0" width="9" height="9" rx="0" fill="#00FF66" opacity="0.95" filter="url(#gg)"/><rect x="245.5" y="75.0" width="9" height="9" rx="0" fill="#00FF66" opacity="0.95" filter="url(#gg)"/><rect x="281.5" y="75.0" width="9" height="9" rx="0" fill="#00FF66" opacity="0.95" filter="url(#gg)"/><rect x="245.5" y="84.0" width="9" height="9" rx="0" fill="#00FF66" opacity="0.95" filter="url(#gg)"/><rect x="281.5" y="84.0" width="9" height="9" rx="0" fill="#00FF66" opacity="0.95" filter="url(#gg)"/><rect x="245.5" y="93.0" width="9" height="9" rx="0" fill="#00FF66" opacity="0.95" filter="url(#gg)"/><rect x="281.5" y="93.0" width="9" height="9" rx="0" fill="#00FF66" opacity="0.95" filter="url(#gg)"/><rect x="308.5" y="39.0" width="9" height="9" rx="0" fill="#00FF66" opacity="0.95" filter="url(#gg)"/><rect x="317.5" y="39.0" width="9" height="9" rx="0" fill="#00FF66" opacity="0.95" filter="url(#gg)"/><rect x="326.5" y="39.0" width="9" height="9" rx="0" fill="#00FF66" opacity="0.95" filter="url(#gg)"/><rect x="299.5" y="48.0" width="9" height="9" rx="0" fill="#00FF66" opacity="0.95" filter="url(#gg)"/><rect x="335.5" y="48.0" width="9" height="9" rx="0" fill="#00FF66" opacity="0.95" filter="url(#gg)"/><rect x="299.5" y="57.0" width="9" height="9" rx="0" fill="#00FF66" opacity="0.95" filter="url(#gg)"/><rect x="335.5" y="57.0" width="9" height="9" rx="0" fill="#00FF66" opacity="0.95" filter="url(#gg)"/><rect x="299.5" y="66.0" width="9" height="9" rx="0" fill="#00FF66" opacity="0.95" filter="url(#gg)"/><rect x="308.5" y="66.0" width="9" height="9" rx="0" fill="#00FF66" opacity="0.95" filter="url(#gg)"/><rect x="317.5" y="66.0" width="9" height="9" rx="0" fill="#00FF66" opacity="0.95" filter="url(#gg)"/><rect x="326.5" y="66.0" width="9" height="9" rx="0" fill="#00FF66" opacity="0.95" filter="url(#gg)"/><rect x="335.5" y="66.0" width="9" height="9" rx="0" fill="#00FF66" opacity="0.95" filter="url(#gg)"/><rect x="299.5" y="75.0" width="9" height="9" rx="0" fill="#00FF66" opacity="0.95" filter="url(#gg)"/><rect x="335.5" y="75.0" width="9" height="9" rx="0" fill="#00FF66" opacity="0.95" filter="url(#gg)"/><rect x="299.5" y="84.0" width="9" height="9" rx="0" fill="#00FF66" opacity="0.95" filter="url(#gg)"/><rect x="335.5" y="84.0" width="9" height="9" rx="0" fill="#00FF66" opacity="0.95" filter="url(#gg)"/><rect x="299.5" y="93.0" width="9" height="9" rx="0" fill="#00FF66" opacity="0.95" filter="url(#gg)"/><rect x="335.5" y="93.0" width="9" height="9" rx="0" fill="#00FF66" opacity="0.95" filter="url(#gg)"/><rect x="353.5" y="39.0" width="9" height="9" rx="0" fill="#00FF66" opacity="0.95" filter="url(#gg)"/><rect x="362.5" y="39.0" width="9" height="9" rx="0" fill="#00FF66" opacity="0.95" filter="url(#gg)"/><rect x="371.5" y="39.0" width="9" height="9" rx="0" fill="#00FF66" opacity="0.95" filter="url(#gg)"/><rect x="380.5" y="39.0" width="9" height="9" rx="0" fill="#00FF66" opacity="0.95" filter="url(#gg)"/><rect x="353.5" y="48.0" width="9" height="9" rx="0" fill="#00FF66" opacity="0.95" filter="url(#gg)"/><rect x="389.5" y="48.0" width="9" height="9" rx="0" fill="#00FF66" opacity="0.95" filter="url(#gg)"/><rect x="353.5" y="57.0" width="9" height="9" rx="0" fill="#00FF66" opacity="0.95" filter="url(#gg)"/><rect x="389.5" y="57.0" width="9" height="9" rx="0" fill="#00FF66" opacity="0.95" filter="url(#gg)"/><rect x="353.5" y="66.0" width="9" height="9" rx="0" fill="#00FF66" opacity="0.95" filter="url(#gg)"/><rect x="362.5" y="66.0" width="9" height="9" rx="0" fill="#00FF66" opacity="0.95" filter="url(#gg)"/><rect x="371.5" y="66.0" width="9" height="9" rx="0" fill="#00FF66" opacity="0.95" filter="url(#gg)"/><rect x="380.5" y="66.0" width="9" height="9" rx="0" fill="#00FF66" opacity="0.95" filter="url(#gg)"/><rect x="353.5" y="75.0" width="9" height="9" rx="0" fill="#00FF66" opacity="0.95" filter="url(#gg)"/><rect x="389.5" y="75.0" width="9" height="9" rx="0" fill="#00FF66" opacity="0.95" filter="url(#gg)"/><rect x="353.5" y="84.0" width="9" height="9" rx="0" fill="#00FF66" opacity="0.95" filter="url(#gg)"/><rect x="389.5" y="84.0" width="9" height="9" rx="0" fill="#00FF66" opacity="0.95" filter="url(#gg)"/><rect x="353.5" y="93.0" width="9" height="9" rx="0" fill="#00FF66" opacity="0.95" filter="url(#gg)"/><rect x="362.5" y="93.0" width="9" height="9" rx="0" fill="#00FF66" opacity="0.95" filter="url(#gg)"/><rect x="371.5" y="93.0" width="9" height="9" rx="0" fill="#00FF66" opacity="0.95" filter="url(#gg)"/><rect x="380.5" y="93.0" width="9" height="9" rx="0" fill="#00FF66" opacity="0.95" filter="url(#gg)"/><rect x="416.5" y="39.0" width="9" height="9" rx="0" fill="#00FF66" opacity="0.95" filter="url(#gg)"/><rect x="425.5" y="39.0" width="9" height="9" rx="0" fill="#00FF66" opacity="0.95" filter="url(#gg)"/><rect x="434.5" y="39.0" width="9" height="9" rx="0" fill="#00FF66" opacity="0.95" filter="url(#gg)"/><rect x="407.5" y="48.0" width="9" height="9" rx="0" fill="#00FF66" opacity="0.95" filter="url(#gg)"/><rect x="443.5" y="48.0" width="9" height="9" rx="0" fill="#00FF66" opacity="0.95" filter="url(#gg)"/><rect x="407.5" y="57.0" width="9" height="9" rx="0" fill="#00FF66" opacity="0.95" filter="url(#gg)"/><rect x="443.5" y="57.0" width="9" height="9" rx="0" fill="#00FF66" opacity="0.95" filter="url(#gg)"/><rect x="407.5" y="66.0" width="9" height="9" rx="0" fill="#00FF66" opacity="0.95" filter="url(#gg)"/><rect x="416.5" y="66.0" width="9" height="9" rx="0" fill="#00FF66" opacity="0.95" filter="url(#gg)"/><rect x="425.5" y="66.0" width="9" height="9" rx="0" fill="#00FF66" opacity="0.95" filter="url(#gg)"/><rect x="434.5" y="66.0" width="9" height="9" rx="0" fill="#00FF66" opacity="0.95" filter="url(#gg)"/><rect x="443.5" y="66.0" width="9" height="9" rx="0" fill="#00FF66" opacity="0.95" filter="url(#gg)"/><rect x="407.5" y="75.0" width="9" height="9" rx="0" fill="#00FF66" opacity="0.95" filter="url(#gg)"/><rect x="443.5" y="75.0" width="9" height="9" rx="0" fill="#00FF66" opacity="0.95" filter="url(#gg)"/><rect x="407.5" y="84.0" width="9" height="9" rx="0" fill="#00FF66" opacity="0.95" filter="url(#gg)"/><rect x="443.5" y="84.0" width="9" height="9" rx="0" fill="#00FF66" opacity="0.95" filter="url(#gg)"/><rect x="407.5" y="93.0" width="9" height="9" rx="0" fill="#00FF66" opacity="0.95" filter="url(#gg)"/><rect x="443.5" y="93.0" width="9" height="9" rx="0" fill="#00FF66" opacity="0.95" filter="url(#gg)"/><rect x="92.5" y="114.0" width="9" height="9" rx="0" fill="#00FF66" opacity="0.95" filter="url(#gg)"/><rect x="101.5" y="114.0" width="9" height="9" rx="0" fill="#00FF66" opacity="0.95" filter="url(#gg)"/><rect x="110.5" y="114.0" width="9" height="9" rx="0" fill="#00FF66" opacity="0.95" filter="url(#gg)"/><rect x="119.5" y="114.0" width="9" height="9" rx="0" fill="#00FF66" opacity="0.95" filter="url(#gg)"/><rect x="83.5" y="123.0" width="9" height="9" rx="0" fill="#00FF66" opacity="0.95" filter="url(#gg)"/><rect x="83.5" y="132.0" width="9" height="9" rx="0" fill="#00FF66" opacity="0.95" filter="url(#gg)"/><rect x="92.5" y="141.0" width="9" height="9" rx="0" fill="#00FF66" opacity="0.95" filter="url(#gg)"/><rect x="101.5" y="141.0" width="9" height="9" rx="0" fill="#00FF66" opacity="0.95" filter="url(#gg)"/><rect x="110.5" y="141.0" width="9" height="9" rx="0" fill="#00FF66" opacity="0.95" filter="url(#gg)"/><rect x="119.5" y="150.0" width="9" height="9" rx="0" fill="#00FF66" opacity="0.95" filter="url(#gg)"/><rect x="119.5" y="159.0" width="9" height="9" rx="0" fill="#00FF66" opacity="0.95" filter="url(#gg)"/><rect x="83.5" y="168.0" width="9" height="9" rx="0" fill="#00FF66" opacity="0.95" filter="url(#gg)"/><rect x="92.5" y="168.0" width="9" height="9" rx="0" fill="#00FF66" opacity="0.95" filter="url(#gg)"/><rect x="101.5" y="168.0" width="9" height="9" rx="0" fill="#00FF66" opacity="0.95" filter="url(#gg)"/><rect x="110.5" y="168.0" width="9" height="9" rx="0" fill="#00FF66" opacity="0.95" filter="url(#gg)"/><rect x="137.5" y="114.0" width="9" height="9" rx="0" fill="#00FF66" opacity="0.95" filter="url(#gg)"/><rect x="146.5" y="114.0" width="9" height="9" rx="0" fill="#00FF66" opacity="0.95" filter="url(#gg)"/><rect x="155.5" y="114.0" width="9" height="9" rx="0" fill="#00FF66" opacity="0.95" filter="url(#gg)"/><rect x="164.5" y="114.0" width="9" height="9" rx="0" fill="#00FF66" opacity="0.95" filter="url(#gg)"/><rect x="173.5" y="114.0" width="9" height="9" rx="0" fill="#00FF66" opacity="0.95" filter="url(#gg)"/><rect x="155.5" y="123.0" width="9" height="9" rx="0" fill="#00FF66" opacity="0.95" filter="url(#gg)"/><rect x="155.5" y="132.0" width="9" height="9" rx="0" fill="#00FF66" opacity="0.95" filter="url(#gg)"/><rect x="155.5" y="141.0" width="9" height="9" rx="0" fill="#00FF66" opacity="0.95" filter="url(#gg)"/><rect x="155.5" y="150.0" width="9" height="9" rx="0" fill="#00FF66" opacity="0.95" filter="url(#gg)"/><rect x="155.5" y="159.0" width="9" height="9" rx="0" fill="#00FF66" opacity="0.95" filter="url(#gg)"/><rect x="155.5" y="168.0" width="9" height="9" rx="0" fill="#00FF66" opacity="0.95" filter="url(#gg)"/><rect x="200.5" y="114.0" width="9" height="9" rx="0" fill="#00FF66" opacity="0.95" filter="url(#gg)"/><rect x="209.5" y="114.0" width="9" height="9" rx="0" fill="#00FF66" opacity="0.95" filter="url(#gg)"/><rect x="218.5" y="114.0" width="9" height="9" rx="0" fill="#00FF66" opacity="0.95" filter="url(#gg)"/><rect x="191.5" y="123.0" width="9" height="9" rx="0" fill="#00FF66" opacity="0.95" filter="url(#gg)"/><rect x="227.5" y="123.0" width="9" height="9" rx="0" fill="#00FF66" opacity="0.95" filter="url(#gg)"/><rect x="191.5" y="132.0" width="9" height="9" rx="0" fill="#00FF66" opacity="0.95" filter="url(#gg)"/><rect x="227.5" y="132.0" width="9" height="9" rx="0" fill="#00FF66" opacity="0.95" filter="url(#gg)"/><rect x="191.5" y="141.0" width="9" height="9" rx="0" fill="#00FF66" opacity="0.95" filter="url(#gg)"/><rect x="200.5" y="141.0" width="9" height="9" rx="0" fill="#00FF66" opacity="0.95" filter="url(#gg)"/><rect x="209.5" y="141.0" width="9" height="9" rx="0" fill="#00FF66" opacity="0.95" filter="url(#gg)"/><rect x="218.5" y="141.0" width="9" height="9" rx="0" fill="#00FF66" opacity="0.95" filter="url(#gg)"/><rect x="227.5" y="141.0" width="9" height="9" rx="0" fill="#00FF66" opacity="0.95" filter="url(#gg)"/><rect x="191.5" y="150.0" width="9" height="9" rx="0" fill="#00FF66" opacity="0.95" filter="url(#gg)"/><rect x="227.5" y="150.0" width="9" height="9" rx="0" fill="#00FF66" opacity="0.95" filter="url(#gg)"/><rect x="191.5" y="159.0" width="9" height="9" rx="0" fill="#00FF66" opacity="0.95" filter="url(#gg)"/><rect x="227.5" y="159.0" width="9" height="9" rx="0" fill="#00FF66" opacity="0.95" filter="url(#gg)"/><rect x="191.5" y="168.0" width="9" height="9" rx="0" fill="#00FF66" opacity="0.95" filter="url(#gg)"/><rect x="227.5" y="168.0" width="9" height="9" rx="0" fill="#00FF66" opacity="0.95" filter="url(#gg)"/><rect x="245.5" y="114.0" width="9" height="9" rx="0" fill="#00FF66" opacity="0.95" filter="url(#gg)"/><rect x="254.5" y="114.0" width="9" height="9" rx="0" fill="#00FF66" opacity="0.95" filter="url(#gg)"/><rect x="263.5" y="114.0" width="9" height="9" rx="0" fill="#00FF66" opacity="0.95" filter="url(#gg)"/><rect x="272.5" y="114.0" width="9" height="9" rx="0" fill="#00FF66" opacity="0.95" filter="url(#gg)"/><rect x="281.5" y="114.0" width="9" height="9" rx="0" fill="#00FF66" opacity="0.95" filter="url(#gg)"/><rect x="263.5" y="123.0" width="9" height="9" rx="0" fill="#00FF66" opacity="0.95" filter="url(#gg)"/><rect x="263.5" y="132.0" width="9" height="9" rx="0" fill="#00FF66" opacity="0.95" filter="url(#gg)"/><rect x="263.5" y="141.0" width="9" height="9" rx="0" fill="#00FF66" opacity="0.95" filter="url(#gg)"/><rect x="263.5" y="150.0" width="9" height="9" rx="0" fill="#00FF66" opacity="0.95" filter="url(#gg)"/><rect x="263.5" y="159.0" width="9" height="9" rx="0" fill="#00FF66" opacity="0.95" filter="url(#gg)"/><rect x="263.5" y="168.0" width="9" height="9" rx="0" fill="#00FF66" opacity="0.95" filter="url(#gg)"/><rect x="299.5" y="114.0" width="9" height="9" rx="0" fill="#00FF66" opacity="0.95" filter="url(#gg)"/><rect x="308.5" y="114.0" width="9" height="9" rx="0" fill="#00FF66" opacity="0.95" filter="url(#gg)"/><rect x="317.5" y="114.0" width="9" height="9" rx="0" fill="#00FF66" opacity="0.95" filter="url(#gg)"/><rect x="326.5" y="114.0" width="9" height="9" rx="0" fill="#00FF66" opacity="0.95" filter="url(#gg)"/><rect x="335.5" y="114.0" width="9" height="9" rx="0" fill="#00FF66" opacity="0.95" filter="url(#gg)"/><rect x="317.5" y="123.0" width="9" height="9" rx="0" fill="#00FF66" opacity="0.95" filter="url(#gg)"/><rect x="317.5" y="132.0" width="9" height="9" rx="0" fill="#00FF66" opacity="0.95" filter="url(#gg)"/><rect x="317.5" y="141.0" width="9" height="9" rx="0" fill="#00FF66" opacity="0.95" filter="url(#gg)"/><rect x="317.5" y="150.0" width="9" height="9" rx="0" fill="#00FF66" opacity="0.95" filter="url(#gg)"/><rect x="317.5" y="159.0" width="9" height="9" rx="0" fill="#00FF66" opacity="0.95" filter="url(#gg)"/><rect x="299.5" y="168.0" width="9" height="9" rx="0" fill="#00FF66" opacity="0.95" filter="url(#gg)"/><rect x="308.5" y="168.0" width="9" height="9" rx="0" fill="#00FF66" opacity="0.95" filter="url(#gg)"/><rect x="317.5" y="168.0" width="9" height="9" rx="0" fill="#00FF66" opacity="0.95" filter="url(#gg)"/><rect x="326.5" y="168.0" width="9" height="9" rx="0" fill="#00FF66" opacity="0.95" filter="url(#gg)"/><rect x="335.5" y="168.0" width="9" height="9" rx="0" fill="#00FF66" opacity="0.95" filter="url(#gg)"/><rect x="362.5" y="114.0" width="9" height="9" rx="0" fill="#00FF66" opacity="0.95" filter="url(#gg)"/><rect x="371.5" y="114.0" width="9" height="9" rx="0" fill="#00FF66" opacity="0.95" filter="url(#gg)"/><rect x="380.5" y="114.0" width="9" height="9" rx="0" fill="#00FF66" opacity="0.95" filter="url(#gg)"/><rect x="353.5" y="123.0" width="9" height="9" rx="0" fill="#00FF66" opacity="0.95" filter="url(#gg)"/><rect x="389.5" y="123.0" width="9" height="9" rx="0" fill="#00FF66" opacity="0.95" filter="url(#gg)"/><rect x="353.5" y="132.0" width="9" height="9" rx="0" fill="#00FF66" opacity="0.95" filter="url(#gg)"/><rect x="389.5" y="132.0" width="9" height="9" rx="0" fill="#00FF66" opacity="0.95" filter="url(#gg)"/><rect x="353.5" y="141.0" width="9" height="9" rx="0" fill="#00FF66" opacity="0.95" filter="url(#gg)"/><rect x="389.5" y="141.0" width="9" height="9" rx="0" fill="#00FF66" opacity="0.95" filter="url(#gg)"/><rect x="353.5" y="150.0" width="9" height="9" rx="0" fill="#00FF66" opacity="0.95" filter="url(#gg)"/><rect x="389.5" y="150.0" width="9" height="9" rx="0" fill="#00FF66" opacity="0.95" filter="url(#gg)"/><rect x="353.5" y="159.0" width="9" height="9" rx="0" fill="#00FF66" opacity="0.95" filter="url(#gg)"/><rect x="389.5" y="159.0" width="9" height="9" rx="0" fill="#00FF66" opacity="0.95" filter="url(#gg)"/><rect x="362.5" y="168.0" width="9" height="9" rx="0" fill="#00FF66" opacity="0.95" filter="url(#gg)"/><rect x="371.5" y="168.0" width="9" height="9" rx="0" fill="#00FF66" opacity="0.95" filter="url(#gg)"/><rect x="380.5" y="168.0" width="9" height="9" rx="0" fill="#00FF66" opacity="0.95" filter="url(#gg)"/><rect x="407.5" y="114.0" width="9" height="9" rx="0" fill="#00FF66" opacity="0.95" filter="url(#gg)"/><rect x="443.5" y="114.0" width="9" height="9" rx="0" fill="#00FF66" opacity="0.95" filter="url(#gg)"/><rect x="407.5" y="123.0" width="9" height="9" rx="0" fill="#00FF66" opacity="0.95" filter="url(#gg)"/><rect x="416.5" y="123.0" width="9" height="9" rx="0" fill="#00FF66" opacity="0.95" filter="url(#gg)"/><rect x="443.5" y="123.0" width="9" height="9" rx="0" fill="#00FF66" opacity="0.95" filter="url(#gg)"/><rect x="407.5" y="132.0" width="9" height="9" rx="0" fill="#00FF66" opacity="0.95" filter="url(#gg)"/><rect x="416.5" y="132.0" width="9" height="9" rx="0" fill="#00FF66" opacity="0.95" filter="url(#gg)"/><rect x="443.5" y="132.0" width="9" height="9" rx="0" fill="#00FF66" opacity="0.95" filter="url(#gg)"/><rect x="407.5" y="141.0" width="9" height="9" rx="0" fill="#00FF66" opacity="0.95" filter="url(#gg)"/><rect x="425.5" y="141.0" width="9" height="9" rx="0" fill="#00FF66" opacity="0.95" filter="url(#gg)"/><rect x="443.5" y="141.0" width="9" height="9" rx="0" fill="#00FF66" opacity="0.95" filter="url(#gg)"/><rect x="407.5" y="150.0" width="9" height="9" rx="0" fill="#00FF66" opacity="0.95" filter="url(#gg)"/><rect x="434.5" y="150.0" width="9" height="9" rx="0" fill="#00FF66" opacity="0.95" filter="url(#gg)"/><rect x="443.5" y="150.0" width="9" height="9" rx="0" fill="#00FF66" opacity="0.95" filter="url(#gg)"/><rect x="407.5" y="159.0" width="9" height="9" rx="0" fill="#00FF66" opacity="0.95" filter="url(#gg)"/><rect x="434.5" y="159.0" width="9" height="9" rx="0" fill="#00FF66" opacity="0.95" filter="url(#gg)"/><rect x="443.5" y="159.0" width="9" height="9" rx="0" fill="#00FF66" opacity="0.95" filter="url(#gg)"/><rect x="407.5" y="168.0" width="9" height="9" rx="0" fill="#00FF66" opacity="0.95" filter="url(#gg)"/><rect x="443.5" y="168.0" width="9" height="9" rx="0" fill="#00FF66" opacity="0.95" filter="url(#gg)"/><text x="268" y="187.0" font-size="11" fill="#00E5FF" text-anchor="middle" xml:space="preserve" font-weight="600" letter-spacing="3.2">SECHABA.OS</text><text x="268" y="205.0" font-size="9.5" fill="#00FF66" text-anchor="middle" xml:space="preserve" letter-spacing="0.6">&gt; Build  ·  Secure  ·  Automate  ·  Improve  ·  Repeat</text><path d="M 20 8 h 12 M 8 16 v 8" fill="none" stroke="#00E5FF" stroke-width="1" stroke-opacity="0.4" stroke-linecap="round" stroke-linejoin="round"/><path d="M 516 8 h -12 M 528 16 v 8" fill="none" stroke="#00E5FF" stroke-width="1" stroke-opacity="0.4" stroke-linecap="round" stroke-linejoin="round"/><path d="M 20 254 h 12 M 8 246 v -8" fill="none" stroke="#00E5FF" stroke-width="1" stroke-opacity="0.4" stroke-linecap="round" stroke-linejoin="round"/><path d="M 516 254 h -12 M 528 246 v -8" fill="none" stroke="#00E5FF" stroke-width="1" stroke-opacity="0.4" stroke-linecap="round" stroke-linejoin="round"/></svg>