<svg xmlns="http://www.w3.org/2000/svg" width="604" height="296" viewBox="0 0 604 296" role="img"><defs><filter id="gg" x="-60%" y="-60%" width="220%" height="220%"><feGaussianBlur stdDeviation="2.2" result="b"/><feMerge><feMergeNode in="b"/><feMergeNode in="SourceGraphic"/></feMerge></filter><filter id="gc" x="-60%" y="-60%" width="220%" height="220%"><feGaussianBlur stdDeviation="2.2" result="b"/><feMerge><feMergeNode in="b"/><feMergeNode in="SourceGraphic"/></feMerge></filter><filter id="gp" x="-60%" y="-60%" width="220%" height="220%"><feGaussianBlur stdDeviation="2.2" result="b"/><feMerge><feMergeNode in="b"/><feMergeNode in="SourceGraphic"/></feMerge></filter><filter id="gv" x="-60%" y="-60%" width="220%" height="220%"><feGaussianBlur stdDeviation="2.2" result="b"/><feMerge><feMergeNode in="b"/><feMergeNode in="SourceGraphic"/></feMerge></filter><filter id="gm" x="-60%" y="-60%" width="220%" height="220%"><feGaussianBlur stdDeviation="2.2" result="b"/><feMerge><feMergeNode in="b"/><feMergeNode in="SourceGraphic"/></feMerge></filter><linearGradient id="wg" x1="0" y1="0" x2="1" y2="0"><stop offset="0" stop-color="#00FF66"/><stop offset="0.55" stop-color="#00E5FF"/><stop offset="1" stop-color="#FF0055"/></linearGradient><linearGradient id="wfill" x1="0" y1="0" x2="0" y2="1"><stop offset="0" stop-color="#00FF66" stop-opacity="0.30"/><stop offset="1" stop-color="#FF0055" stop-opacity="0.02"/></linearGradient></defs><title>Identity and secure connection panel</title><rect width="604" height="296" fill="#020607"/><rect x="0" y="0" width="604" height="296" rx="9" fill="#071012" stroke="#00E5FF" stroke-width="1" stroke-opacity="0.5"/><rect x="0" y="0" width="604" height="296" rx="9" fill="none" stroke="#00E5FF" stroke-width="1" stroke-opacity="0.16" filter="url(#gc)"/><text x="14" y="26" font-size="12" fill="#00E5FF" text-anchor="start" xml:space="preserve" font-weight="600" letter-spacing="0.8">IDENTITY / SECURE CONNECTION</text><line x1="14" y1="33" x2="590" y2="33" stroke="#00E5FF" stroke-width="1" stroke-opacity="0.3"/><path d="M 118.0 87.0 L 106.0 81.0 L 94.0 83.0 L 86.0 91.0 L 78.0 101.0 L 64.0 105.0 L 52.0 111.0 L 38.0 117.0 L 28.0 123.0 L 40.0 123.0 L 54.0 121.0 L 66.0 125.0 L 78.0 125.0 L 86.0 121.0 L 90.0 111.0 L 100.0 101.0 L 110.0 97.0 Z" fill="#00FF66" stroke="#00FF66" stroke-width="1.2" stroke-opacity="0.95" stroke-linecap="round" stroke-linejoin="round" opacity="0.16" filter="url(#gg)"/><path d="M 66.0 125.0 L 64.0 141.0 L 70.0 147.0 L 74.0 147.0 L 72.0 141.0 L 74.0 125.0 Z" fill="#00FF66" stroke="#00FF66" stroke-width="1" stroke-opacity="0.85" stroke-linecap="round" stroke-linejoin="round" opacity="0.12"/><path d="M 86.0 121.0 L 86.0 137.0 L 92.0 143.0 L 96.0 143.0 L 93.0 137.0 L 94.0 121.0 Z" fill="#00FF66" stroke="#00FF66" stroke-width="1" stroke-opacity="0.85" stroke-linecap="round" stroke-linejoin="round" opacity="0.12"/><path d="M 78.0 101.0 L 52.0 67.0 L 76.0 77.0 L 88.0 87.0 L 84.0 99.0 Z" fill="#00FF66" stroke="#00FF66" stroke-width="1.1" stroke-opacity="0.9" stroke-linecap="round" stroke-linejoin="round" opacity="0.1" filter="url(#gg)"/><path d="M 38.0 117.0 L 30.0 109.0 L 36.0 111.0" fill="none" stroke="#00FF66" stroke-width="1" stroke-opacity="0.7" stroke-linecap="round" stroke-linejoin="round"/><path d="M 78.0 101.0 L 66.0 79.0 L 84.0 97.0" fill="none" stroke="#00FF66" stroke-width="0.9" stroke-opacity="0.5" stroke-linecap="round" stroke-linejoin="round"/><path d="M 106.0 81.0 L 104.0 72.0" fill="none" stroke="#00FF66" stroke-width="1" stroke-opacity="0.8" stroke-linecap="round" stroke-linejoin="round"/><path d="M 100.0 82.0 L 96.0 73.0" fill="none" stroke="#00FF66" stroke-width="1" stroke-opacity="0.8" stroke-linecap="round" stroke-linejoin="round"/><circle cx="104.0" cy="87.0" r="2.1999999999999997" fill="#FF0055" filter="url(#gp)"/><text x="146" y="51" font-size="9" fill="#00FF66" text-anchor="start" xml:space="preserve" font-weight="700" letter-spacing="2.4">KALI</text><text x="146" y="65" font-size="9" fill="#00FF66" text-anchor="start" xml:space="preserve" font-weight="700" letter-spacing="2.4" opacity="0.8">DRAGON</text><text x="146" y="91" font-size="9" fill="#00FF66" text-anchor="start" xml:space="preserve" font-weight="700">&gt;</text><text x="158" y="91" font-size="9.5" fill="#D8E4E6" text-anchor="start" xml:space="preserve">establishing connection...</text><text x="146" y="106" font-size="9" fill="#00FF66" text-anchor="start" xml:space="preserve" font-weight="700">&gt;</text><text x="158" y="106" font-size="9.5" fill="#D8E4E6" text-anchor="start" xml:space="preserve">verifying identity...</text><text x="146" y="121" font-size="9" fill="#00FF66" text-anchor="start" xml:space="preserve" font-weight="700">&gt;</text><text x="158" y="121" font-size="9.5" fill="#D8E4E6" text-anchor="start" xml:space="preserve">loading security protocols...</text><text x="146" y="136" font-size="9" fill="#00FF66" text-anchor="start" xml:space="preserve" font-weight="700">&gt;</text><text x="158" y="136" font-size="9.5" fill="#00FF66" text-anchor="start" xml:space="preserve" font-weight="600" filter="url(#gg)">access granted.</text><text x="146" y="157" font-size="16" fill="#00E5FF" text-anchor="start" xml:space="preserve" font-weight="700" letter-spacing="1.2" filter="url(#gc)">SECHABA SEABATA</text><text x="146" y="176" font-size="9" fill="#D8E4E6" text-anchor="start" xml:space="preserve" letter-spacing="0.4">SOFTWARE ENGINEER  ·  CYBERSECURITY</text><text x="146" y="189" font-size="9" fill="#D8E4E6" text-anchor="start" xml:space="preserve" letter-spacing="0.4">ETHICAL HACKING  ·  SECURITY ENGINEERING</text><rect x="146" y="201" width="8" height="8" rx="2" fill="#00FF66" opacity="0.9" filter="url(#gg)"/><text x="160" y="208" font-size="9.5" fill="#00FF66" text-anchor="start" xml:space="preserve">Maseru, Lesotho</text><text x="245.5" y="208" font-size="9.5" fill="#738688" text-anchor="start" xml:space="preserve">  ·  LSO</text><line x1="146" y1="220" x2="588" y2="220" stroke="#00E5FF" stroke-width="1" stroke-opacity="0.25"/><text x="146" y="234" font-size="8" fill="#738688" text-anchor="start" xml:space="preserve">Security research and offensive-security activities are conducted within authorized,</text><text x="146" y="245" font-size="8" fill="#738688" text-anchor="start" xml:space="preserve">controlled and educational environments.</text></svg>