<svg xmlns="http://www.w3.org/2000/svg" width="248" height="358" viewBox="0 0 248 358" role="img"><defs><style>:root{--bg:#020607;--panel:#071012;--panel2:#0A1416;--grn:#00FF66;--cyn:#00E5FF;--pnk:#FF0055;--pur:#9B4DFF;--txt:#D8E4E6;--mut:#738688;--amb:#FFB800;--pill:#04161A;}@media (prefers-color-scheme: light){:root{--bg:#FFFFFF;--panel:#F6F8FA;--panel2:#EAF0F3;--grn:#0A7A35;--cyn:#0B6F8D;--pnk:#C01352;--pur:#7733CC;--txt:#1F2328;--mut:#59636E;--amb:#B7791F;--pill:#E4EEF1;}}</style><filter id="gg" x="-60%" y="-60%" width="220%" height="220%"><feGaussianBlur stdDeviation="2.2" result="b"/><feMerge><feMergeNode in="b"/><feMergeNode in="SourceGraphic"/></feMerge></filter><filter id="gc" x="-60%" y="-60%" width="220%" height="220%"><feGaussianBlur stdDeviation="2.2" result="b"/><feMerge><feMergeNode in="b"/><feMergeNode in="SourceGraphic"/></feMerge></filter><filter id="gp" x="-60%" y="-60%" width="220%" height="220%"><feGaussianBlur stdDeviation="2.2" result="b"/><feMerge><feMergeNode in="b"/><feMergeNode in="SourceGraphic"/></feMerge></filter><filter id="gv" x="-60%" y="-60%" width="220%" height="220%"><feGaussianBlur stdDeviation="2.2" result="b"/><feMerge><feMergeNode in="b"/><feMergeNode in="SourceGraphic"/></feMerge></filter><filter id="gm" x="-60%" y="-60%" width="220%" height="220%"><feGaussianBlur stdDeviation="2.2" result="b"/><feMerge><feMergeNode in="b"/><feMergeNode in="SourceGraphic"/></feMerge></filter><linearGradient id="wg" x1="0" y1="0" x2="1" y2="0"><stop offset="0" stop-color="var(--grn)"/><stop offset="0.55" stop-color="var(--cyn)"/><stop offset="1" stop-color="var(--pnk)"/></linearGradient><linearGradient id="wfill" x1="0" y1="0" x2="0" y2="1"><stop offset="0" stop-color="var(--grn)" stop-opacity="0.30"/><stop offset="1" stop-color="var(--pnk)" stop-opacity="0.02"/></linearGradient></defs><title>Operational thread: how the disciplines connect</title><rect width="248" height="358" fill="var(--bg)"/><rect x="0" y="0" width="248" height="358" rx="9" fill="var(--panel)" stroke="var(--grn)" stroke-width="1" stroke-opacity="0.5"/><rect x="0" y="0" width="248" height="358" rx="9" fill="none" stroke="var(--grn)" stroke-width="1" stroke-opacity="0.16" filter="url(#gg)"/><text x="14" y="25.5" font-size="11.5" fill="var(--grn)" text-anchor="start" xml:space="preserve" font-weight="600" letter-spacing="0.8">OPERATIONAL THREAD</text><line x1="14" y1="32.5" x2="234" y2="32.5" stroke="var(--grn)" stroke-width="1" stroke-opacity="0.3"/><rect x="14" y="42.5" width="220" height="21" rx="5" fill="var(--panel2)" stroke="var(--grn)" stroke-width="1" stroke-opacity="0.45"/><text x="124.0" y="56.06" font-size="8.5" fill="var(--txt)" text-anchor="middle" xml:space="preserve">SOFTWARE ENGINEERING</text><line x1="124.0" y1="65.5" x2="124.0" y2="67.5" stroke="var(--grn)" stroke-width="1.1" stroke-opacity="0.7"/><path d="M 120.6 67.06 L 127.4 67.06 L 124.0 72.5 Z" fill="var(--grn)" opacity="0.85"/><rect x="14" y="72.5" width="220" height="21" rx="5" fill="var(--panel2)" stroke="var(--grn)" stroke-width="1" stroke-opacity="0.45"/><text x="124.0" y="86.06" font-size="8.5" fill="var(--txt)" text-anchor="middle" xml:space="preserve">SYSTEMS &amp; ARCHITECTURE</text><line x1="124.0" y1="95.5" x2="124.0" y2="97.5" stroke="var(--grn)" stroke-width="1.1" stroke-opacity="0.7"/><path d="M 120.6 97.06 L 127.4 97.06 L 124.0 102.5 Z" fill="var(--grn)" opacity="0.85"/><rect x="14" y="102.5" width="220" height="21" rx="5" fill="var(--panel2)" stroke="var(--grn)" stroke-width="1" stroke-opacity="0.45"/><text x="124.0" y="116.06" font-size="8.5" fill="var(--txt)" text-anchor="middle" xml:space="preserve">LINUX &amp; NETWORKING</text><line x1="124.0" y1="125.5" x2="124.0" y2="127.5" stroke="var(--grn)" stroke-width="1.1" stroke-opacity="0.7"/><path d="M 120.6 127.06 L 127.4 127.06 L 124.0 132.5 Z" fill="var(--grn)" opacity="0.85"/><rect x="14" y="132.5" width="220" height="21" rx="5" fill="var(--panel2)" stroke="var(--grn)" stroke-width="1" stroke-opacity="0.45"/><text x="124.0" y="146.06" font-size="8.5" fill="var(--txt)" text-anchor="middle" xml:space="preserve">CYBERSECURITY</text><line x1="124.0" y1="155.5" x2="124.0" y2="157.5" stroke="var(--grn)" stroke-width="1.1" stroke-opacity="0.7"/><path d="M 120.6 157.06 L 127.4 157.06 L 124.0 162.5 Z" fill="var(--grn)" opacity="0.85"/><rect x="14" y="162.5" width="220" height="21" rx="5" fill="var(--panel2)" stroke="var(--grn)" stroke-width="1" stroke-opacity="0.45"/><text x="124.0" y="176.06" font-size="8.5" fill="var(--txt)" text-anchor="middle" xml:space="preserve">ETHICAL HACKING</text><line x1="124.0" y1="185.5" x2="124.0" y2="187.5" stroke="var(--grn)" stroke-width="1.1" stroke-opacity="0.7"/><path d="M 120.6 187.06 L 127.4 187.06 L 124.0 192.5 Z" fill="var(--grn)" opacity="0.85"/><rect x="14" y="192.5" width="220" height="21" rx="5" fill="var(--panel2)" stroke="var(--grn)" stroke-width="1" stroke-opacity="0.45"/><text x="124.0" y="206.06" font-size="8.5" fill="var(--txt)" text-anchor="middle" xml:space="preserve">SECURITY ENGINEERING</text><line x1="124.0" y1="215.5" x2="124.0" y2="217.5" stroke="var(--grn)" stroke-width="1.1" stroke-opacity="0.7"/><path d="M 120.6 217.06 L 127.4 217.06 L 124.0 222.5 Z" fill="var(--grn)" opacity="0.85"/><rect x="14" y="222.5" width="220" height="21" rx="5" fill="var(--panel2)" stroke="var(--grn)" stroke-width="1" stroke-opacity="0.45"/><text x="124.0" y="236.06" font-size="8.5" fill="var(--txt)" text-anchor="middle" xml:space="preserve">AI ENGINEERING</text><line x1="124.0" y1="245.5" x2="124.0" y2="247.5" stroke="var(--grn)" stroke-width="1.1" stroke-opacity="0.7"/><path d="M 120.6 247.06 L 127.4 247.06 L 124.0 252.5 Z" fill="var(--grn)" opacity="0.85"/><rect x="14" y="252.5" width="220" height="21" rx="5" fill="var(--panel2)" stroke="var(--grn)" stroke-width="1" stroke-opacity="0.45"/><text x="124.0" y="266.06" font-size="8.5" fill="var(--txt)" text-anchor="middle" xml:space="preserve">AGENTIC ENGINEERING</text><line x1="14" y1="285.5" x2="234" y2="285.5" stroke="var(--grn)" stroke-width="1" stroke-opacity="0.25"/><text x="124" y="299.5" font-size="8" fill="var(--cyn)" text-anchor="middle" xml:space="preserve" opacity="0.9">Build systems</text><text x="124" y="310.5" font-size="8" fill="var(--cyn)" text-anchor="middle" xml:space="preserve" opacity="0.9">Understand how they fail</text><text x="124" y="321.5" font-size="8" fill="var(--cyn)" text-anchor="middle" xml:space="preserve" opacity="0.9">Understand how they are attacked</text><text x="124" y="332.5" font-size="8" fill="var(--cyn)" text-anchor="middle" xml:space="preserve" opacity="0.9">Secure them</text><text x="124" y="343.5" font-size="8" fill="var(--cyn)" text-anchor="middle" xml:space="preserve" opacity="0.9">Engineer them with AI</text></svg>